<?xml version="1.0" encoding="iso-8859-1"?>
<!-- Generator: Adobe Illustrator 19.0.0, SVG Export Plug-In . SVG Version: 6.00 Build 0)  -->
<svg version="1.1" id="Layer_1" xmlns="http://www.w3.org/2000/svg" xmlns:xlink="http://www.w3.org/1999/xlink" x="0px" y="0px"
	 viewBox="0 0 512 512" style="enable-background:new 0 0 512 512;" xml:space="preserve">
<path style="fill:#FFFFFF;" d="M501.551,387.058c0,28.498-23.312,51.808-51.809,51.808H62.258
	c-28.496,0-51.809-23.311-51.809-51.808V124.942c0-28.497,23.313-51.808,51.809-51.808h387.484
	c28.497,0,51.809,23.311,51.809,51.808V387.058z"/>
<path style="fill:#D50707;" d="M62.258,438.867h10.885V162.547l182.716,147.187l182.716-147.187v276.319h11.166
	c26.683,0,48.816-20.435,51.528-46.43V124.942c0-28.498-23.313-51.808-51.809-51.808L255.859,229.627L62.258,73.133
	c-28.496,0-51.809,23.311-51.809,51.808v262.117C10.449,415.556,33.762,438.867,62.258,438.867z"/>
<path d="M449.742,62.684H62.258C27.929,62.684,0,90.614,0,124.942v262.117c0,34.329,27.929,62.257,62.258,62.257h387.484
	c34.33,0,62.258-27.928,62.258-62.257V124.942C512,90.614,484.072,62.684,449.742,62.684z M419.912,83.582L255.859,216.19
	L91.806,83.582H419.912z M428.126,428.418H83.592V184.382l165.712,133.49c3.826,3.082,9.284,3.082,13.11,0l165.711-133.49V428.418z
	 M491.102,387.058c0,22.806-18.554,41.359-41.36,41.359h-0.717v-265.87c0-4.023-2.309-7.688-5.939-9.425
	c-3.632-1.738-7.934-1.235-11.065,1.288L255.859,296.318L79.698,154.41c-3.134-2.523-7.438-3.026-11.065-1.288
	c-3.63,1.737-5.939,5.402-5.939,9.425v265.87h-0.436c-22.805,0.001-41.359-18.553-41.359-41.358V124.942
	c0-21.626,16.688-39.418,37.861-41.2l190.532,154.012c1.915,1.549,4.242,2.323,6.568,2.323c2.327,0,4.653-0.774,6.568-2.323
	L452.983,83.721c21.295,1.66,38.119,19.507,38.119,41.22V387.058z"/>
<path d="M398.522,263.111c2.309,0,4.634-0.762,6.568-2.328l3.635-2.942c4.485-3.631,5.177-10.21,1.546-14.695
	c-3.63-4.486-10.211-5.178-14.695-1.547l-3.636,2.942c-4.485,3.631-5.177,10.211-1.546,14.696
	C392.459,261.787,395.477,263.111,398.522,263.111z"/>
<path d="M297.54,344.054c2.309,0,4.634-0.762,6.568-2.327l74.708-59.674c4.485-3.631,5.177-10.21,1.546-14.695
	c-3.63-4.486-10.211-5.179-14.695-1.549l-74.708,59.674c-4.485,3.631-5.177,10.21-1.546,14.695
	C291.476,342.729,294.495,344.054,297.54,344.054z"/>
<g>
</g>
<g>
</g>
<g>
</g>
<g>
</g>
<g>
</g>
<g>
</g>
<g>
</g>
<g>
</g>
<g>
</g>
<g>
</g>
<g>
</g>
<g>
</g>
<g>
</g>
<g>
</g>
<g>
</g>
</svg>
